<svg xmlns="http://www.w3.org/2000/svg" width="1973.354" height="563.689" viewBox="0 0 1973.354 563.689"><path d="M292.695 96.588c-22.33 2.01-44.65 4.099-66.965 6.269 6.304-20.781 12.66-41.546 19.067-62.295A8546.531 8546.531 0 0 1 401.49 27.297a10417.632 10417.632 0 0 0-70.743 175.391 9236.672 9236.672 0 0 1 78.658-6.32c-6.505 20.6-12.962 41.213-19.369 61.844a8280.59 8280.59 0 0 0-164.9 14.722 10382.853 10382.853 0 0 1 67.559-176.346zm188.862-74.853a7908.814 7908.814 0 0 1 58.792-3.562 11717.978 11717.978 0 0 1 103.303 224.404 9235.2 9235.2 0 0 0-74.947 3.739 9763.893 9763.893 0 0 0-9-20.166 9032.608 9032.608 0 0 0-72.255 4.378 9655.082 9655.082 0 0 0-6.501 21.104 9137.594 9137.594 0 0 0-74.874 5.338 11902.233 11902.233 0 0 1 75.482-235.235zm55.164 155.097a14179.81 14179.81 0 0 0-18.638-39.197 15757.617 15757.617 0 0 0-13.768 41.158c10.802-.668 21.603-1.322 32.406-1.961zM646.27 73.106c-14.96.665-29.919 1.361-44.877 2.087-.99-20.035-1.977-40.07-2.971-60.105A8496.634 8496.634 0 0 1 769.79 8.492l1.661 60.155c-14.966.425-29.931.88-44.896 1.367 1.876 56.366 3.759 112.731 5.636 169.096a9064.03 9064.03 0 0 0-78.545 3.025c-2.455-56.342-4.922-112.685-7.376-169.029zM782.661 8.148a9521.505 9521.505 0 0 1 78.36-1.643c.421 26.017.834 52.034 1.248 78.051 14.45-.22 28.9-.41 43.351-.572-.271-26.019-.539-52.037-.813-78.055 26.247-.252 52.492-.393 78.74-.426.044 76.456.06 152.913.093 229.369-25.483.032-50.964.169-76.446.413l-.884-84.936c-14.327.161-28.653.351-42.979.567.45 28.31.904 56.62 1.356 84.93-25.361.424-50.72.958-76.077 1.594-1.981-76.431-3.962-152.861-5.949-229.292zm220.874 112.229c.034-16.998 3.138-34.151 10.323-49.663 6.652-14.361 16.142-27.351 28.001-37.852 12.018-10.641 26.423-19.091 41.364-23.846 16.377-5.212 32.938-7.594 50.175-7.649 12.293-.04 25.111 1.503 37.281 4.567 9.515 2.396 18.923 5.393 27.914 9.303 8.956 3.895 16.686 8.151 23.16 12.699a10650.141 10650.141 0 0 0-40.124 62.539c-3.815-2.848-8.091-5.878-12.555-8.216-3.838-2.01-8.971-3.819-14.643-5.66-5.678-1.843-12.166-2.835-19.461-2.974-7.541-.144-14.497.997-20.854 3.414-6.365 2.42-11.942 5.776-16.735 10.062a47.086 47.086 0 0 0-11.305 15.152c-2.74 5.811-4.145 12.043-4.227 18.689-.082 6.651 1.235 12.914 3.932 18.793a48.622 48.622 0 0 0 11.172 15.455c4.748 4.42 10.353 7.948 16.796 10.576 6.446 2.629 13.505 4.014 21.194 4.162 7.685.148 14.548-.622 20.596-2.325 6.041-1.702 11.165-3.736 15.283-5.843 4.765-2.438 9.154-5.282 12.853-8.627a10643.13 10643.13 0 0 1 35.975 64.649c-6.6 4.847-14.427 9.236-23.284 12.743-8.871 3.512-18.334 6.098-27.74 8.234-12.063 2.74-24.533 3.579-36.857 3.338-17.438-.341-34.949-3.295-51.29-9.573-14.916-5.73-28.854-14.069-40.565-24.979-11.47-10.684-20.532-23.765-26.759-38.139-6.686-15.433-9.653-32.289-9.62-49.029z"/><path d="M1204.384 123.417c.451-15.982 4.327-32.084 11.34-46.46 6.856-14.057 16.8-26.582 28.608-37.471 11.653-10.747 26.551-18.862 41.834-24.323 16.116-5.758 33.334-8.143 50.406-7.383 17.071.759 34.014 4.664 49.554 11.831 14.738 6.796 28.867 16.206 39.52 27.943 10.795 11.894 19.593 25.263 25.176 39.862 5.709 14.93 8.143 31.334 7.173 47.285-.969 15.924-5.365 31.902-12.742 46.084-7.167 13.777-17.28 26.062-29.144 36.721-11.591 10.415-26.456 18.787-41.25 23.623-16.024 5.239-32.523 7.864-48.987 7.131-16.461-.733-32.653-4.813-48.151-11.454-14.311-6.132-28.358-15.787-38.981-27.192-10.873-11.673-19.853-24.802-25.764-39.162-6.085-14.783-9.043-31.083-8.592-47.035zm76.109 2.511c-.252 6.647.841 12.939 3.268 18.881 2.426 5.94 5.841 11.184 10.233 15.715 4.392 4.53 9.606 8.188 15.622 10.964 6.018 2.776 12.504 4.316 19.468 4.626 6.959.31 13.557-.648 19.798-2.879 6.238-2.23 11.752-5.407 16.536-9.534 4.777-4.122 8.646-9.04 11.591-14.743 2.943-5.701 4.594-11.873 4.933-18.516.339-6.638-.673-12.949-3.04-18.919-2.368-5.972-5.751-11.256-10.142-15.828-4.392-4.574-9.634-8.271-15.708-11.082-6.072-2.81-12.646-4.375-19.692-4.688-7.052-.313-13.729.661-20.026 2.92-6.3 2.26-11.848 5.478-16.627 9.643-4.785 4.17-8.619 9.13-11.507 14.866-2.889 5.738-4.455 11.932-4.707 18.574zm204.688-104.617a9826.377 9826.377 0 0 1 64.647 4.374 8892.53 8892.53 0 0 1 56.87 92.601 9138.95 9138.95 0 0 1 70.506-82.42 9622.881 9622.881 0 0 1 64.554 5.958c-7.333 76.104-14.678 152.207-22.017 228.311a9039.245 9039.245 0 0 0-75.851-6.933c2.366-27.409 4.732-54.817 7.104-82.226a9218.476 9218.476 0 0 0-54.464 64.483 9530.32 9530.32 0 0 0-43.876-72.345c-2.025 27.436-4.036 54.873-6.051 82.309a9136.96 9136.96 0 0 0-75.956-5.202c4.832-76.304 9.703-152.606 14.534-228.91zM33.889 330.329a8369.531 8369.531 0 0 1 139.025-16.265c2.143 19.945 4.291 39.891 6.441 59.835a9109.794 9109.794 0 0 0-63.199 7.074l2.937 25.276a9067.286 9067.286 0 0 1 61.935-6.937c2.042 18.919 4.08 37.838 6.12 56.757a9120.808 9120.808 0 0 0-61.466 6.881l3.058 26.304a9493.392 9493.392 0 0 1 64.709-7.234c2.138 19.946 4.277 39.892 6.421 59.837a8207.046 8207.046 0 0 0-137.233 16.03c-9.582-75.852-19.171-151.705-28.748-227.558zm162.744-18.781a9327.962 9327.962 0 0 1 61.991-6.221 8657.15 8657.15 0 0 1 72.922 82.051c-2.567-29.347-5.14-58.694-7.704-88.041a9007.34 9007.34 0 0 1 74.122-6.124c5.92 76.227 11.846 152.453 17.762 228.68a9079.544 9079.544 0 0 0-60.538 4.954 8729.202 8729.202 0 0 0-71.204-81.963c2.762 29.215 5.53 58.428 8.291 87.643a9089.88 9089.88 0 0 0-71.805 7.148c-7.94-76.043-15.887-152.085-23.837-228.127zM458.239 349.1c-14.436 1.024-28.87 2.081-43.301 3.166l-4.562-60.006a8242.66 8242.66 0 0 1 165.427-10.765c1.084 20.031 2.17 40.062 3.253 60.093a9948.565 9948.565 0 0 0-43.335 2.47c3.375 56.295 6.746 112.591 10.116 168.886a8916.313 8916.313 0 0 0-75.744 4.928c-3.948-56.257-7.907-112.514-11.854-168.772zm129.991-68.267a8394.222 8394.222 0 0 1 139.637-6.042c.685 20.048 1.365 40.096 2.049 60.145-21.157.736-42.31 1.546-63.461 2.43l1.082 25.424c20.728-.865 41.458-1.66 62.191-2.385.65 19.018 1.3 38.035 1.952 57.053-20.576.717-41.149 1.51-61.72 2.366l1.125 26.453a9451.05 9451.05 0 0 1 64.976-2.478c.67 20.049 1.356 40.098 2.028 60.146a8137.618 8137.618 0 0 0-137.837 5.94c-4.01-76.349-8.007-152.701-12.022-229.052zm163.448-6.815c27.25-.824 54.502-1.519 81.759-2.09 14.219-.317 28.516 1.23 42.215 5.112 12.164 3.447 23.775 8.983 33.749 16.778 9.478 7.407 17.14 17.004 22.358 27.832 5.727 11.882 8.069 25.238 8.185 38.289.087 9.841-1.114 20.056-4.718 29.261-3.14 8.018-6.761 14.814-10.685 20.029a73.552 73.552 0 0 1-15.55 15.276 10151.829 10151.829 0 0 1 43.893 75.325c-28.737.152-57.472.449-86.206.9a9993.096 9993.096 0 0 0-35.696-57.462c.407 19.367.811 38.735 1.219 58.103-24.48.532-48.958 1.167-73.433 1.906-2.368-76.419-4.722-152.839-7.09-229.259zm78.08 110.804l3.853-.08c8.871-.182 16.362-2.264 22.488-6.271 6.12-4.003 9.12-10.585 8.972-19.756-.148-9.166-3.367-15.655-9.655-19.442-6.29-3.788-13.916-5.599-22.847-5.416l-3.877.08c.354 16.962.706 33.923 1.066 50.885zm311.91-25.493c-.279 13.484-2.593 27.52-9.222 40.231-5.509 10.564-13.502 19.818-23.338 26.579-10.229 7.03-21.9 11.822-33.966 14.651-13.597 3.188-27.604 4.545-41.567 4.434-.119 18.225-.23 36.45-.345 54.675a8859.11 8859.11 0 0 0-73.452-.098c-.286-76.456-.562-152.911-.837-229.367 25.246-.071 50.491-.041 75.737.102 14.281.066 28.586 1.683 42.431 5.202 12.213 3.104 23.985 8.217 34.213 15.617 9.74 7.047 17.526 16.588 22.702 27.407 6.192 12.943 7.923 27.075 7.644 40.567zm-107.702 23.999l3.149.02c9.809.066 16.888-2.103 21.256-6.531 4.366-4.427 6.598-10.649 6.682-18.677.084-8.022-2.02-14.297-6.321-18.807-4.305-4.512-11.396-6.813-21.271-6.88l-3.174-.02c-.101 16.965-.217 33.93-.321 50.895zm127.275-110.939c27.256.645 54.507 1.416 81.755 2.318 14.218.448 28.408 2.765 41.881 7.378 11.963 4.096 23.266 10.25 32.806 18.57 9.066 7.908 16.201 17.904 20.831 28.997 5.08 12.173 6.698 25.63 6.113 38.674-.44 9.834-2.194 19.966-6.291 28.964-3.568 7.837-7.551 14.428-11.75 19.423a73.603 73.603 0 0 1-16.354 14.418 10357.6 10357.6 0 0 1 39.785 77.579 8811.903 8811.903 0 0 0-86.146-3.745 10959.26 10959.26 0 0 0-32.556-59.298c-.639 19.361-1.276 38.722-1.912 58.083a8644.17 8644.17 0 0 0-73.43-2.053c1.748-76.436 3.511-152.871 5.268-229.308zm71.999 114.849c1.54.051 2.312.075 3.852.127 8.868.297 16.461-1.378 22.795-5.05 6.328-3.667 9.678-10.079 10.023-19.244.346-9.16-2.52-15.814-8.595-19.935-6.077-4.121-13.595-6.338-22.523-6.637l-3.877-.129c-.559 16.957-1.12 33.912-1.675 50.868zm135.183-107.263a8999.83 8999.83 0 0 1 80.265 4.462c-4.653 76.314-9.307 152.628-13.939 228.943a8910.243 8910.243 0 0 0-77.84-4.326c3.807-76.361 7.666-152.72 11.514-229.079zm88.723 163.479c4.993 1.926 10.522 3.368 15.747 4.804 4.424 1.216 9.763 2.711 15.62 3.797a158.44 158.44 0 0 0 17.81 2.261c10.643.745 16.249-2.75 16.811-10.526.215-2.969-1.189-6.123-4.216-9.44-3.029-3.32-6.907-7.044-11.64-11.165a755.287 755.287 0 0 1-15.188-13.627c-5.394-4.96-10.406-10.581-15.032-16.855-4.625-6.273-8.343-13.237-11.144-20.879-2.801-7.64-3.861-16.311-3.298-25.881.573-9.748 2.996-19.561 7.81-28.103 4.49-7.968 10.532-14.509 17.98-19.506 7.803-5.234 16.683-8.805 25.855-10.826 10.156-2.238 20.664-2.868 31.021-2.089 5.672.426 11.345 1.13 16.979 2.131 5.634 1.001 10.761 1.858 15.143 2.718 5.087.998 10.185 2.178 15.097 3.261l-5.125 64.101c-1.862-.376-3.982-.754-6.277-1.189-1.847-.351-3.958-.772-6.279-1.183a75.958 75.958 0 0 0-7.363-.916 98.983 98.983 0 0 0-5.29-.235c-2.117-.046-4.141.087-6.047.401-1.914.315-3.619.992-5.108 2.028-1.492 1.038-2.316 2.584-2.471 4.642-.137 1.833 1.275 4.234 4.229 7.216s6.575 6.479 10.851 10.484c4.277 4.007 8.975 8.626 14.08 13.859 5.103 5.229 9.681 11.12 13.721 17.657 4.041 6.538 7.307 13.826 9.799 21.849 2.493 8.028 3.318 16.854 2.535 26.437-.785 9.603-3.145 19.113-7.196 27.869-3.945 8.527-9.595 15.83-16.89 21.741-7.896 6.398-17.387 10.772-27.215 13.378-12.306 3.263-25.282 3.809-37.916 2.869-8.692-.646-16.773-1.591-24.166-2.902a270.5 270.5 0 0 1-19.588-4.245c-6.476-1.649-12.573-3.346-17.982-5.298l4.343-68.638zm176.056-145.528a8478.784 8478.784 0 0 1 139.27 13.178c-2.076 19.953-4.15 39.907-6.222 59.86a9241.502 9241.502 0 0 0-63.259-6.306l-2.416 25.332a8816.38 8816.38 0 0 1 61.998 6.174c-1.971 18.926-3.929 37.853-5.896 56.778a9607.253 9607.253 0 0 0-61.525-6.127l-2.516 26.358a9063.997 9063.997 0 0 1 64.771 6.468c-2.08 19.951-4.154 39.902-6.241 59.853a8029.864 8029.864 0 0 0-137.471-13.029c6.51-76.178 13.014-152.358 19.507-228.539zm139.903 172.304c4.911 2.138 10.376 3.813 15.54 5.471 4.373 1.403 9.653 3.126 15.465 4.461a158.78 158.78 0 0 0 17.712 3.021c10.612 1.199 16.367-2.054 17.26-9.8.341-2.957-.929-6.17-3.814-9.613-2.889-3.447-6.608-7.33-11.165-11.649a749.856 749.856 0 0 1-14.613-14.266c-5.183-5.187-9.955-11.016-14.313-17.481-4.358-6.465-7.782-13.581-10.258-21.336-2.476-7.752-3.164-16.462-2.195-25.998.986-9.715 3.83-19.417 9.007-27.745 4.829-7.77 11.147-14.045 18.809-18.72 8.026-4.897 17.062-8.084 26.318-9.71 10.249-1.801 20.785-1.983 31.109-.764a169.842 169.842 0 0 1 16.891 2.855c5.592 1.241 10.682 2.315 15.028 3.362 5.045 1.214 10.095 2.611 14.962 3.902-2.622 21.275-5.238 42.551-7.852 63.827-1.847-.455-3.949-.924-6.227-1.457-1.832-.429-3.925-.945-6.229-1.454a76.48 76.48 0 0 0-7.327-1.229c-1.402-.169-3.165-.322-5.281-.459-2.115-.137-4.146-.09-6.066.143-1.928.233-3.659.836-5.193 1.808-1.536.974-2.428 2.484-2.669 4.533-.215 1.825 1.097 4.285 3.924 7.391s6.303 6.751 10.408 10.936c4.107 4.186 8.607 9.003 13.491 14.449 4.881 5.443 9.21 11.524 12.973 18.229 3.764 6.705 6.72 14.126 8.87 22.248 2.152 8.127 2.603 16.979 1.411 26.52-1.194 9.562-3.957 18.965-8.381 27.539-4.309 8.351-10.269 15.398-17.816 20.996-8.173 6.062-17.851 10.019-27.788 12.205-12.447 2.739-25.443 2.723-38.042 1.247-8.668-1.016-16.707-2.305-24.045-3.931a271.506 271.506 0 0 1-19.408-5.079c-6.406-1.925-12.433-3.879-17.759-6.061 2.423-22.797 4.844-45.594 7.263-68.391z"/></svg>