<?xml version="1.0" encoding="utf-8"?>
<!-- Generator: Adobe Illustrator 16.0.4, SVG Export Plug-In . SVG Version: 6.00 Build 0)  -->
<!DOCTYPE svg PUBLIC "-//W3C//DTD SVG 1.1//EN" "http://www.w3.org/Graphics/SVG/1.1/DTD/svg11.dtd">
<svg version="1.1" id="Layer_1" xmlns="http://www.w3.org/2000/svg" xmlns:xlink="http://www.w3.org/1999/xlink" x="0px" y="0px"
	 width="1973.354px" height="563.689px" viewBox="0 0 1973.354 563.689" enable-background="new 0 0 1973.354 563.689"
	 xml:space="preserve">
<g>
	<g>
		<path d="M292.695,96.588c-22.33,2.01-44.65,4.099-66.965,6.269c6.304-20.781,12.66-41.546,19.067-62.295
			c52.191-4.904,104.42-9.322,156.693-13.265c-24.112,58.25-47.692,116.712-70.743,175.391c26.211-2.219,52.429-4.325,78.658-6.32
			c-6.505,20.6-12.962,41.213-19.369,61.844c-55.017,4.36-109.981,9.263-164.9,14.722
			C247.124,213.947,269.638,155.165,292.695,96.588z"/>
		<path d="M481.557,21.735c19.593-1.261,39.191-2.447,58.792-3.562c35.222,74.439,69.658,149.239,103.303,224.404
			c-24.988,1.145-49.969,2.391-74.947,3.739c-3.592-8.069-5.392-12.102-9-20.166c-24.091,1.363-48.176,2.822-72.255,4.378
			c-2.609,8.441-3.909,12.661-6.501,21.104c-24.966,1.677-49.923,3.456-74.874,5.338C430.421,178.297,455.583,99.887,481.557,21.735
			z M536.721,176.832c-6.193-13.075-12.405-26.141-18.638-39.197c-4.609,13.713-9.197,27.433-13.768,41.158
			C515.117,178.125,525.918,177.471,536.721,176.832z"/>
		<path d="M646.27,73.106c-14.96,0.665-29.919,1.361-44.877,2.087c-0.99-20.035-1.977-40.07-2.971-60.105
			c57.102-2.776,114.222-4.973,171.368-6.596c0.554,20.052,1.108,40.104,1.661,60.155c-14.966,0.425-29.931,0.88-44.896,1.367
			c1.876,56.366,3.759,112.731,5.636,169.096c-26.187,0.897-52.368,1.901-78.545,3.025
			C651.191,185.793,648.724,129.45,646.27,73.106z"/>
		<path d="M782.661,8.148c26.118-0.656,52.237-1.202,78.36-1.643c0.421,26.017,0.834,52.034,1.248,78.051
			c14.45-0.22,28.9-0.41,43.351-0.572c-0.271-26.019-0.539-52.037-0.813-78.055c26.247-0.252,52.492-0.393,78.74-0.426
			c0.044,76.456,0.06,152.913,0.093,229.369c-25.483,0.032-50.964,0.169-76.446,0.413c-0.294-28.312-0.589-56.624-0.884-84.936
			c-14.327,0.161-28.653,0.351-42.979,0.567c0.45,28.31,0.904,56.62,1.356,84.93c-25.361,0.424-50.72,0.958-76.077,1.594
			C786.629,161.009,784.648,84.579,782.661,8.148z"/>
		<path d="M1003.535,120.377c0.034-16.998,3.138-34.151,10.323-49.663c6.652-14.361,16.142-27.351,28.001-37.852
			c12.018-10.641,26.423-19.091,41.364-23.846c16.377-5.212,32.938-7.594,50.175-7.649c12.293-0.04,25.111,1.503,37.281,4.567
			c9.515,2.396,18.923,5.393,27.914,9.303c8.956,3.895,16.686,8.151,23.16,12.699c-13.446,20.8-26.823,41.645-40.124,62.539
			c-3.815-2.848-8.091-5.878-12.555-8.216c-3.838-2.01-8.971-3.819-14.643-5.66c-5.678-1.843-12.166-2.835-19.461-2.974
			c-7.541-0.144-14.497,0.997-20.854,3.414c-6.365,2.42-11.942,5.776-16.735,10.062c-4.796,4.288-8.564,9.344-11.305,15.152
			c-2.74,5.811-4.145,12.043-4.227,18.689c-0.082,6.651,1.235,12.914,3.932,18.793c2.695,5.877,6.423,11.034,11.172,15.455
			c4.748,4.42,10.353,7.948,16.796,10.576c6.446,2.629,13.505,4.014,21.194,4.162c7.685,0.148,14.548-0.622,20.596-2.325
			c6.041-1.702,11.165-3.736,15.283-5.843c4.765-2.438,9.154-5.282,12.853-8.627c12.067,21.508,24.058,43.058,35.975,64.649
			c-6.6,4.847-14.427,9.236-23.284,12.743c-8.871,3.512-18.334,6.098-27.74,8.234c-12.063,2.74-24.533,3.579-36.857,3.338
			c-17.438-0.341-34.949-3.295-51.29-9.573c-14.916-5.73-28.854-14.069-40.565-24.979c-11.47-10.684-20.532-23.765-26.759-38.139
			C1006.469,153.973,1003.502,137.117,1003.535,120.377z"/>
		<path d="M1204.384,123.417c0.451-15.982,4.327-32.084,11.34-46.46c6.856-14.057,16.8-26.582,28.608-37.471
			c11.653-10.747,26.551-18.862,41.834-24.323c16.116-5.758,33.334-8.143,50.406-7.383c17.071,0.759,34.014,4.664,49.554,11.831
			c14.738,6.796,28.867,16.206,39.52,27.943c10.795,11.894,19.593,25.263,25.176,39.862c5.709,14.93,8.143,31.334,7.173,47.285
			c-0.969,15.924-5.365,31.902-12.742,46.084c-7.167,13.777-17.28,26.062-29.144,36.721c-11.591,10.415-26.456,18.787-41.25,23.623
			c-16.024,5.239-32.523,7.864-48.987,7.131c-16.461-0.733-32.653-4.813-48.151-11.454c-14.311-6.132-28.358-15.787-38.981-27.192
			c-10.873-11.673-19.853-24.802-25.764-39.162C1206.891,155.669,1203.933,139.369,1204.384,123.417z M1280.493,125.928
			c-0.252,6.647,0.841,12.939,3.268,18.881c2.426,5.94,5.841,11.184,10.233,15.715c4.392,4.53,9.606,8.188,15.622,10.964
			c6.018,2.776,12.504,4.316,19.468,4.626c6.959,0.31,13.557-0.648,19.798-2.879c6.238-2.23,11.752-5.407,16.536-9.534
			c4.777-4.122,8.646-9.04,11.591-14.743c2.943-5.701,4.594-11.873,4.933-18.516c0.339-6.638-0.673-12.949-3.04-18.919
			c-2.368-5.972-5.751-11.256-10.142-15.828c-4.392-4.574-9.634-8.271-15.708-11.082c-6.072-2.81-12.646-4.375-19.692-4.688
			c-7.052-0.313-13.729,0.661-20.026,2.92c-6.3,2.26-11.848,5.478-16.627,9.643c-4.785,4.17-8.619,9.13-11.507,14.866
			C1282.311,113.092,1280.745,119.286,1280.493,125.928z"/>
		<path d="M1485.181,21.311c21.555,1.387,43.103,2.845,64.647,4.374c19.147,30.75,38.1,61.619,56.87,92.601
			c23.34-27.613,46.84-55.086,70.506-82.42c21.525,1.914,43.042,3.899,64.554,5.958c-7.333,76.104-14.678,152.207-22.017,228.311
			c-25.274-2.418-50.557-4.728-75.851-6.933c2.366-27.409,4.732-54.817,7.104-82.226c-18.252,21.413-36.409,42.904-54.464,64.483
			c-14.521-24.179-29.141-48.296-43.876-72.345c-2.025,27.436-4.036,54.873-6.051,82.309c-25.312-1.839-50.63-3.574-75.956-5.202
			C1475.479,173.917,1480.35,97.615,1485.181,21.311z"/>
		<path d="M33.889,330.329c46.297-5.811,92.637-11.229,139.025-16.265c2.143,19.945,4.291,39.891,6.441,59.835
			c-21.075,2.285-42.141,4.642-63.199,7.074c1.175,10.111,1.762,15.165,2.937,25.276c20.638-2.382,41.282-4.697,61.935-6.937
			c2.042,18.919,4.08,37.838,6.12,56.757c-20.497,2.223-40.984,4.519-61.466,6.881c1.223,10.521,1.835,15.783,3.058,26.304
			c21.562-2.487,43.131-4.895,64.709-7.234c2.138,19.946,4.277,39.892,6.421,59.837c-45.791,4.962-91.533,10.298-137.233,16.03
			C53.055,482.035,43.466,406.182,33.889,330.329z"/>
		<path d="M196.633,311.548c20.657-2.144,41.32-4.215,61.991-6.221c24.48,27.198,48.789,54.545,72.922,82.051
			c-2.567-29.347-5.14-58.694-7.704-88.041c24.699-2.144,49.406-4.184,74.122-6.124c5.92,76.227,11.846,152.453,17.762,228.68
			c-20.185,1.584-40.364,3.235-60.538,4.954c-23.563-27.471-47.301-54.787-71.204-81.963c2.762,29.215,5.53,58.428,8.291,87.643
			c-23.945,2.29-47.879,4.668-71.805,7.148C212.53,463.632,204.583,387.59,196.633,311.548z"/>
		<path d="M458.239,349.1c-14.436,1.024-28.87,2.081-43.301,3.166c-1.521-20.002-3.042-40.004-4.562-60.006
			c55.107-4.144,110.247-7.73,165.427-10.765c1.084,20.031,2.17,40.062,3.253,60.093c-14.447,0.791-28.892,1.616-43.335,2.47
			c3.375,56.295,6.746,112.591,10.116,168.886c-25.255,1.533-50.502,3.18-75.744,4.928
			C466.145,461.615,462.186,405.358,458.239,349.1z"/>
		<path d="M588.23,280.833c46.53-2.402,93.073-4.415,139.637-6.042c0.685,20.048,1.365,40.096,2.049,60.145
			c-21.157,0.736-42.31,1.546-63.461,2.43c0.432,10.17,0.65,15.254,1.082,25.424c20.728-0.865,41.458-1.66,62.191-2.385
			c0.65,19.018,1.3,38.035,1.952,57.053c-20.576,0.717-41.149,1.51-61.72,2.366c0.45,10.582,0.675,15.871,1.125,26.453
			c21.656-0.901,43.314-1.726,64.976-2.478c0.67,20.049,1.356,40.098,2.028,60.146c-45.963,1.593-91.907,3.568-137.837,5.94
			C596.242,433.536,592.245,357.184,588.23,280.833z"/>
		<path d="M751.678,274.018c27.25-0.824,54.502-1.519,81.759-2.09c14.219-0.317,28.516,1.23,42.215,5.112
			c12.164,3.447,23.775,8.983,33.749,16.778c9.478,7.407,17.14,17.004,22.358,27.832c5.727,11.882,8.069,25.238,8.185,38.289
			c0.087,9.841-1.114,20.056-4.718,29.261c-3.14,8.018-6.761,14.814-10.685,20.029c-4.506,5.989-9.79,11.09-15.55,15.276
			c14.74,25.046,29.369,50.154,43.893,75.325c-28.737,0.152-57.472,0.449-86.206,0.9c-11.834-19.194-23.732-38.348-35.696-57.462
			c0.407,19.367,0.811,38.735,1.219,58.103c-24.48,0.532-48.958,1.167-73.433,1.906C756.4,426.858,754.046,350.438,751.678,274.018z
			 M829.758,384.822c1.541-0.032,2.312-0.049,3.853-0.08c8.871-0.182,16.362-2.264,22.488-6.271
			c6.12-4.003,9.12-10.585,8.972-19.756c-0.148-9.166-3.367-15.655-9.655-19.442c-6.29-3.788-13.916-5.599-22.847-5.416
			c-1.552,0.032-2.326,0.047-3.877,0.08C829.046,350.899,829.398,367.86,829.758,384.822z"/>
		<path d="M1141.668,359.329c-0.279,13.484-2.593,27.52-9.222,40.231c-5.509,10.564-13.502,19.818-23.338,26.579
			c-10.229,7.03-21.9,11.822-33.966,14.651c-13.597,3.188-27.604,4.545-41.567,4.434c-0.119,18.225-0.23,36.45-0.345,54.675
			c-24.484-0.134-48.967-0.167-73.452-0.098c-0.286-76.456-0.562-152.911-0.837-229.367c25.246-0.071,50.491-0.041,75.737,0.102
			c14.281,0.066,28.586,1.683,42.431,5.202c12.213,3.104,23.985,8.217,34.213,15.617c9.74,7.047,17.526,16.588,22.702,27.407
			C1140.216,331.705,1141.947,345.837,1141.668,359.329z M1033.966,383.328c1.261,0.008,1.889,0.011,3.149,0.02
			c9.809,0.066,16.888-2.103,21.256-6.531c4.366-4.427,6.598-10.649,6.682-18.677c0.084-8.022-2.02-14.297-6.321-18.807
			c-4.305-4.512-11.396-6.813-21.271-6.88c-1.27-0.009-1.904-0.012-3.174-0.02C1034.186,349.398,1034.07,366.363,1033.966,383.328z"
			/>
		<path d="M1161.241,272.389c27.256,0.645,54.507,1.416,81.755,2.318c14.218,0.448,28.408,2.765,41.881,7.378
			c11.963,4.096,23.266,10.25,32.806,18.57c9.066,7.908,16.201,17.904,20.831,28.997c5.08,12.173,6.698,25.63,6.113,38.674
			c-0.44,9.834-2.194,19.966-6.291,28.964c-3.568,7.837-7.551,14.428-11.75,19.423c-4.823,5.737-10.376,10.548-16.354,14.418
			c13.373,25.804,26.63,51.664,39.785,77.579c-28.71-1.386-57.424-2.64-86.146-3.745c-10.795-19.798-21.639-39.567-32.556-59.298
			c-0.639,19.361-1.276,38.722-1.912,58.083c-24.474-0.788-48.95-1.473-73.43-2.053
			C1157.721,425.261,1159.484,348.826,1161.241,272.389z M1233.24,387.238c1.54,0.051,2.312,0.075,3.852,0.127
			c8.868,0.297,16.461-1.378,22.795-5.05c6.328-3.667,9.678-10.079,10.023-19.244c0.346-9.16-2.52-15.814-8.595-19.935
			c-6.077-4.121-13.595-6.338-22.523-6.637c-1.551-0.052-2.326-0.078-3.877-0.129
			C1234.356,353.327,1233.795,370.282,1233.24,387.238z"/>
		<path d="M1368.423,279.975c26.762,1.367,53.516,2.856,80.265,4.462c-4.653,76.314-9.307,152.628-13.939,228.943
			c-25.94-1.555-51.887-2.998-77.84-4.326C1360.716,432.693,1364.575,356.334,1368.423,279.975z"/>
		<path d="M1457.146,443.454c4.993,1.926,10.522,3.368,15.747,4.804c4.424,1.216,9.763,2.711,15.62,3.797
			c5.856,1.085,11.788,1.839,17.81,2.261c10.643,0.745,16.249-2.75,16.811-10.526c0.215-2.969-1.189-6.123-4.216-9.44
			c-3.029-3.32-6.907-7.044-11.64-11.165c-4.735-4.124-9.796-8.667-15.188-13.627c-5.394-4.96-10.406-10.581-15.032-16.855
			c-4.625-6.273-8.343-13.237-11.144-20.879c-2.801-7.64-3.861-16.311-3.298-25.881c0.573-9.748,2.996-19.561,7.81-28.103
			c4.49-7.968,10.532-14.509,17.98-19.506c7.803-5.234,16.683-8.805,25.855-10.826c10.156-2.238,20.664-2.868,31.021-2.089
			c5.672,0.426,11.345,1.13,16.979,2.131c5.634,1.001,10.761,1.858,15.143,2.718c5.087,0.998,10.185,2.178,15.097,3.261
			c-1.709,21.367-3.416,42.734-5.125,64.101c-1.862-0.376-3.982-0.754-6.277-1.189c-1.847-0.351-3.958-0.772-6.279-1.183
			c-2.326-0.411-4.784-0.717-7.363-0.916c-1.407-0.108-3.172-0.189-5.29-0.235c-2.117-0.046-4.141,0.087-6.047,0.401
			c-1.914,0.315-3.619,0.992-5.108,2.028c-1.492,1.038-2.316,2.584-2.471,4.642c-0.137,1.833,1.275,4.234,4.229,7.216
			s6.575,6.479,10.851,10.484c4.277,4.007,8.975,8.626,14.08,13.859c5.103,5.229,9.681,11.12,13.721,17.657
			c4.041,6.538,7.307,13.826,9.799,21.849c2.493,8.028,3.318,16.854,2.535,26.437c-0.785,9.603-3.145,19.113-7.196,27.869
			c-3.945,8.527-9.595,15.83-16.89,21.741c-7.896,6.398-17.387,10.772-27.215,13.378c-12.306,3.263-25.282,3.809-37.916,2.869
			c-8.692-0.646-16.773-1.591-24.166-2.902c-7.398-1.312-13.983-2.817-19.588-4.245c-6.476-1.649-12.573-3.346-17.982-5.298
			C1454.25,489.211,1455.698,466.333,1457.146,443.454z"/>
		<path d="M1633.202,297.926c46.461,4.01,92.881,8.402,139.27,13.178c-2.076,19.953-4.15,39.907-6.222,59.86
			c-21.079-2.175-42.165-4.276-63.259-6.306c-0.967,10.133-1.449,15.199-2.416,25.332c20.674,1.984,41.339,4.044,61.998,6.174
			c-1.971,18.926-3.929,37.853-5.896,56.778c-20.502-2.109-41.01-4.15-61.525-6.127c-1.006,10.544-1.51,15.814-2.516,26.358
			c21.599,2.081,43.188,4.232,64.771,6.468c-2.08,19.951-4.154,39.902-6.241,59.853c-45.788-4.729-91.608-9.088-137.471-13.029
			C1620.205,450.287,1626.709,374.107,1633.202,297.926z"/>
		<path d="M1773.105,470.23c4.911,2.138,10.376,3.813,15.54,5.471c4.373,1.403,9.653,3.126,15.465,4.461
			c5.811,1.334,11.707,2.342,17.712,3.021c10.612,1.199,16.367-2.054,17.26-9.8c0.341-2.957-0.929-6.17-3.814-9.613
			c-2.889-3.447-6.608-7.33-11.165-11.649c-4.561-4.322-9.432-9.08-14.613-14.266c-5.183-5.187-9.955-11.016-14.313-17.481
			c-4.358-6.465-7.782-13.581-10.258-21.336c-2.476-7.752-3.164-16.462-2.195-25.998c0.986-9.715,3.83-19.417,9.007-27.745
			c4.829-7.77,11.147-14.045,18.809-18.72c8.026-4.897,17.062-8.084,26.318-9.71c10.249-1.801,20.785-1.983,31.109-0.764
			c5.655,0.667,11.298,1.614,16.891,2.855c5.592,1.241,10.682,2.315,15.028,3.362c5.045,1.214,10.095,2.611,14.962,3.902
			c-2.622,21.275-5.238,42.551-7.852,63.827c-1.847-0.455-3.949-0.924-6.227-1.457c-1.832-0.429-3.925-0.945-6.229-1.454
			c-2.309-0.51-4.756-0.919-7.327-1.229c-1.402-0.169-3.165-0.322-5.281-0.459c-2.115-0.137-4.146-0.09-6.066,0.143
			c-1.928,0.233-3.659,0.836-5.193,1.808c-1.536,0.974-2.428,2.484-2.669,4.533c-0.215,1.825,1.097,4.285,3.924,7.391
			s6.303,6.751,10.408,10.936c4.107,4.186,8.607,9.003,13.491,14.449c4.881,5.443,9.21,11.524,12.973,18.229
			c3.764,6.705,6.72,14.126,8.87,22.248c2.152,8.127,2.603,16.979,1.411,26.52c-1.194,9.562-3.957,18.965-8.381,27.539
			c-4.309,8.351-10.269,15.398-17.816,20.996c-8.173,6.062-17.851,10.019-27.788,12.205c-12.447,2.739-25.443,2.723-38.042,1.247
			c-8.668-1.016-16.707-2.305-24.045-3.931c-7.343-1.627-13.864-3.414-19.408-5.079c-6.406-1.925-12.433-3.879-17.759-6.061
			C1768.265,515.824,1770.686,493.027,1773.105,470.23z"/>
	</g>
</g>
</svg>
